<svg width="21" height="26" viewBox="0 0 21 26" fill="none" xmlns="http://www.w3.org/2000/svg">
<path fill-rule="evenodd" clip-rule="evenodd" d="M2.4082 5.69534C3.43032 3.68875 4.82058 1.54595 7.34876 0.683921C8.62738 0.272188 9.97212 0.830529 10.7418 1.70648C12.2563 4.8159 11.8962 8.30229 10.7087 11.4432C8.41213 9.09104 5.61085 7.11226 2.4082 5.69534Z" fill="#203864"/>
<path fill-rule="evenodd" clip-rule="evenodd" d="M11.3167 1.3244C14.148 2.56861 16.1789 4.83779 18.1125 6.96557C19.5991 8.54554 20.5659 10.5745 20.3344 12.6457C20.176 14.4058 19.1035 15.9751 17.885 17.3431C15.4519 20.0718 12.4541 22.3904 9.1882 24.338C7.84368 25.0909 6.19459 25.7483 4.57381 25.3171C2.36412 24.8328 0.893599 23.1257 0 21.4008C4.80538 19.0857 9.2735 15.756 11.2843 11.1859C12.45 8.00478 12.8035 4.47369 11.3167 1.3244Z" fill="#F26E29"/>
</svg>
